<mxfile host="app.diagrams.net" modified="2024-04-10T15:45:27.452Z" agent="Mozilla/5.0 (Macintosh; Intel Mac OS X 10_15_7) AppleWebKit/537.36 (KHTML, like Gecko) Chrome/123.0.0.0 Safari/537.36 Edg/123.0.0.0" version="22.1.18" etag="eDy310nJ5DdkmAUVYt1A" type="github">
  <diagram name="Page-1" id="7H28VW9JiDJ_gBE5AeFb">
    <mxGraphModel>
      <root>
        <mxCell id="0" />
        <mxCell id="1" parent="0" />
      </root>
    </mxGraphModel>
  </diagram>
</mxfile>
